<svg xmlns="http://www.w3.org/2000/svg" xmlns:xlink="http://www.w3.org/1999/xlink" width="238" height="238" viewBox="0 0 238 238">
  <defs>
    <linearGradient id="linear-gradient" x1="0.119" y1="1" x2="1" gradientUnits="objectBoundingBox">
      <stop offset="0" stop-color="#00b6d8"/>
      <stop offset="1" stop-color="#f66bba"/>
    </linearGradient>
    <filter id="Ellipse_10" x="0" y="0" width="238" height="238" filterUnits="userSpaceOnUse">
      <feOffset dx="3" dy="3" input="SourceAlpha"/>
      <feGaussianBlur stdDeviation="3" result="blur"/>
      <feFlood flood-opacity="0.161"/>
      <feComposite operator="in" in2="blur"/>
      <feComposite in="SourceGraphic"/>
    </filter>
  </defs>
  <g id="Group_26" data-name="Group 26" transform="translate(-1104 -2539)">
    <g transform="matrix(1, 0, 0, 1, 1104, 2539)" filter="url(#Ellipse_10)">
      <circle id="Ellipse_10-2" data-name="Ellipse 10" cx="110" cy="110" r="110" transform="translate(6 6)" fill="url(#linear-gradient)"/>
    </g>
    <path id="Icon_awesome-pen" data-name="Icon awesome-pen" d="M48.013,15.4,69.154,36.537,23.247,82.444,4.4,84.524A3.964,3.964,0,0,1,.024,80.147l2.1-18.862L48.013,15.4Zm34.216-3.147L72.3,2.323a7.931,7.931,0,0,0-11.214,0L51.75,11.661,72.891,32.8l9.338-9.338a7.931,7.931,0,0,0,0-11.214Z" transform="translate(1176.17 2612.37)" fill="#fff"/>
  </g>
</svg>
