<svg xmlns="http://www.w3.org/2000/svg" xmlns:xlink="http://www.w3.org/1999/xlink" width="178.488" height="164.861" viewBox="0 0 178.488 164.861">
  <defs>
    <linearGradient id="linear-gradient" x1="0.359" y1="0.931" x2="0.843" y2="0.438" gradientUnits="objectBoundingBox">
      <stop offset="0" stop-color="#00b2d7"/>
      <stop offset="1" stop-color="#bf5694"/>
    </linearGradient>
  </defs>
  <g id="Icon_ionic-ios-cart" data-name="Icon ionic-ios-cart" transform="translate(-3.382 -4.493)">
    <path id="Path_38" data-name="Path 38" d="M30.165,38.426a10.3,10.3,0,1,1-10.3-10.3A10.3,10.3,0,0,1,30.165,38.426Z" transform="translate(31.547 120.627)" fill="#8c5775"/>
    <path id="Path_39" data-name="Path 39" d="M45.95,38.426a10.3,10.3,0,1,1-10.3-10.3,10.3,10.3,0,0,1,10.3,10.3Z" transform="translate(112.12 120.627)" fill="#8c5775"/>
    <path id="Path_40" data-name="Path 40" d="M181.806,33.809a2.523,2.523,0,0,0-2.232-1.8L39.779,18.486a4.3,4.3,0,0,1-3.219-2.017,43.706,43.706,0,0,0-5.236-7.983c-3.3-4.035-9.529-3.906-20.946-3.992-3.863-.043-7,2.232-7,6.052,0,3.734,2.962,6.052,6.7,6.052s9.142.215,11.16.816,3.648,3.906,4.249,6.782a.158.158,0,0,0,.043.129c.086.515.858,4.378.858,4.421l17.168,90.821a33.378,33.378,0,0,0,6.224,15.323A17.129,17.129,0,0,0,63.9,141.841H165.453a6.1,6.1,0,0,0,6.181-5.751,5.98,5.98,0,0,0-6.009-6.266H63.815a4.988,4.988,0,0,1-3.562-1.2c-1.5-1.288-3.562-4.249-4.936-11.16L53.471,107.29a.235.235,0,0,1,.172-.258L172.835,86.859a2.508,2.508,0,0,0,2.1-2.232l6.867-49.7A2.448,2.448,0,0,0,181.806,33.809Z" transform="translate(0 0)" fill="url(#linear-gradient)"/>
  </g>
</svg>
