<svg id="Layer_x0020_1" xmlns="http://www.w3.org/2000/svg" width="284.176" height="341.602" viewBox="0 0 284.176 341.602">
  <g id="_1446596437392">
    <path id="Path_1" data-name="Path 1" d="M11129.231,13143.793a172.5,172.5,0,0,1,17.192,6.233,171.519,171.519,0,0,1-26.1,90.915q-8.038-3.363-16.464-5.953a153.971,153.971,0,0,0,25.065-73.376,153.533,153.533,0,0,0-199.642,114.206,179.562,179.562,0,0,0-15.03,16.045q-2.584,3.114-5.018,6.348.24-4.644.742-9.268a170.6,170.6,0,0,1,219.253-145.15Zm-185.951,156.471a153.79,153.79,0,0,0,143.729-44.137,141.28,141.28,0,0,1,17.746,5.846c-9.923,11.431-9.334,13.648-34.777,30.494s-81.565,32.957-122.816,25.919c-10.743-3.085-11.713-6.962-9.627-11.176v-.006Q10940.293,13303.649,10943.28,13300.264Z" transform="translate(-10909.003 -13136.403)" fill="#fff" fill-rule="evenodd"/>
    <path id="Path_2" data-name="Path 2" d="M11117.232,21464.807a15.35,15.35,0,1,1,17.189-6.236A172.622,172.622,0,0,1,11117.232,21464.807Zm-.3-17.822a153.563,153.563,0,0,0-202.435-134.014h0a153.546,153.546,0,0,0,202.435,134.014Z" transform="translate(-10897 -21130.594)" fill="#fff" fill-rule="evenodd"/>
    <path id="Path_3" data-name="Path 3" d="M11431.538,18116.887a171.2,171.2,0,0,1-59.127,44.424,174.2,174.2,0,0,0-10.446-14.051,154.041,154.041,0,0,0,59.432-44.848C11424.937,18107.074,11428.388,18111.93,11431.538,18116.887Zm-10.142-19.473a153.54,153.54,0,0,0-227.529-12.488,180.107,180.107,0,0,0-21.395,5.084q-3.869,1.181-7.689,2.529,2.766-3.741,5.732-7.322a170.595,170.595,0,0,1,261.016-2.289C11428.383,18087.893,11424.934,18092.744,11421.4,18097.414Zm-229.355,15.627a153.048,153.048,0,0,0,109.948,46.375,154.6,154.6,0,0,0,34.265-3.834,142.084,142.084,0,0,1,11.563,14.672,170.848,170.848,0,0,1-162.541-39.961,145.575,145.575,0,0,1-1.863-14.637h.006Q11187.688,18114.206,11192.041,18113.041Z" transform="translate(-11159.621 -17929.102)" fill="#fff" fill-rule="evenodd"/>
    <path id="Path_4" data-name="Path 4" d="M24614.605,21305.906a143.274,143.274,0,0,0-9.625-13.8,145.544,145.544,0,0,0,9.625-13.807,14.43,14.43,0,0,1,0,27.609Z" transform="translate(-24340.658 -21121.307)" fill="#fefefe" fill-rule="evenodd"/>
  </g>
</svg>
