<svg id="money" xmlns="http://www.w3.org/2000/svg" width="49.905" height="45.368" viewBox="0 0 49.905 45.368">
  <path id="Path_7" data-name="Path 7" d="M47.636,52.761H2.268A2.275,2.275,0,0,1,0,50.493V25.54a2.275,2.275,0,0,1,2.268-2.268H47.637A2.275,2.275,0,0,1,49.9,25.54V50.493A2.275,2.275,0,0,1,47.636,52.761Z" transform="translate(0 -23.272)" fill="#0e9347"/>
  <path id="Path_8" data-name="Path 8" d="M263.561,232.727a7.591,7.591,0,0,0-6.352,3.289A8.46,8.46,0,0,0,253.353,235a7.936,7.936,0,0,0-7.826,6.805h23.7a2.307,2.307,0,0,0,2.268-1.928A8.079,8.079,0,0,0,263.561,232.727Z" transform="translate(-221.595 -212.311)" fill="#0d8944"/>
  <path id="Path_9" data-name="Path 9" d="M64.1,71.5H27.81a4.55,4.55,0,0,0-4.537-4.537V51.083a4.55,4.55,0,0,0,4.537-4.537H64.1a4.55,4.55,0,0,0,4.537,4.537V66.962A4.55,4.55,0,0,0,64.1,71.5Z" transform="translate(-21.005 -44.277)" fill="#3bb54a"/>
  <g id="Group_7" data-name="Group 7" transform="translate(9.074 4.537)">
    <path id="Path_10" data-name="Path 10" d="M269.862,232.727a7.591,7.591,0,0,0-6.352,3.289A8.459,8.459,0,0,0,259.654,235a7.791,7.791,0,0,0-7.145,4.537H271A4.526,4.526,0,0,1,275.42,235,8.2,8.2,0,0,0,269.862,232.727Z" transform="translate(-236.97 -216.848)" fill="#0e9347"/>
    <ellipse id="Ellipse_3" data-name="Ellipse 3" cx="9.074" cy="10.208" rx="9.074" ry="10.208" transform="translate(6.805 0)" fill="#0e9347"/>
    <circle id="Ellipse_4" data-name="Ellipse 4" cx="2.268" cy="2.268" r="2.268" transform="translate(0 7.939)" fill="#0e9347"/>
    <circle id="Ellipse_5" data-name="Ellipse 5" cx="2.268" cy="2.268" r="2.268" transform="translate(27.221 7.939)" fill="#0e9347"/>
  </g>
  <path id="Path_11" data-name="Path 11" d="M215.126,110.4h-2.268a1.134,1.134,0,1,1,0-2.268h3.4a1.134,1.134,0,0,0,0-2.268h-1.134a1.134,1.134,0,0,0-2.268,0,3.4,3.4,0,0,0,0,6.805h2.269a1.134,1.134,0,0,1,0,2.268h-3.4a1.134,1.134,0,1,0,0,2.268h1.134a1.134,1.134,0,0,0,2.268,0,3.4,3.4,0,0,0,0-6.805Z" transform="translate(-189.039 -96.789)" fill="#89c763"/>
  <circle id="Ellipse_6" data-name="Ellipse 6" cx="7.939" cy="7.939" r="7.939" transform="translate(21.55 22.684)" fill="#ffca5d"/>
  <circle id="Ellipse_7" data-name="Ellipse 7" cx="7.939" cy="7.939" r="7.939" transform="translate(31.758 20.416)" fill="#f6b545"/>
  <path id="Path_12" data-name="Path 12" d="M333.758,232.727a7.939,7.939,0,1,0,7.939,7.939A7.891,7.891,0,0,0,333.758,232.727Zm0,13.61a5.671,5.671,0,1,1,5.671-5.671A5.616,5.616,0,0,1,333.758,246.338Z" transform="translate(-294.06 -212.311)" fill="#ffcb5b"/>
  <path id="Path_13" data-name="Path 13" d="M407.273,322.008h0a7.8,7.8,0,0,0,7.94-7.826H415.1a1.206,1.206,0,0,0-1.134,1.021,6.857,6.857,0,0,1-2.155,4.083,6.427,6.427,0,0,1-3.516,1.7A1.017,1.017,0,0,0,407.273,322.008Z" transform="translate(-367.576 -285.827)" fill="#f6b545"/>
  <path id="Path_14" data-name="Path 14" d="M333.758,233.867h0a7.8,7.8,0,0,0-7.94,7.826h.114a1.206,1.206,0,0,0,1.134-1.021,6.858,6.858,0,0,1,2.155-4.083,6.426,6.426,0,0,1,3.516-1.7A1.017,1.017,0,0,0,333.758,233.867Z" transform="translate(-294.06 -213.338)" fill="#ffe27a"/>
  <path id="Path_15" data-name="Path 15" d="M349.885,262.465a5.616,5.616,0,0,1,5.671-5.671,5.35,5.35,0,0,1,3.629,1.361,5.653,5.653,0,0,0-10.094,3.516,5.438,5.438,0,0,0,2.042,4.31A5.319,5.319,0,0,1,349.885,262.465Z" transform="translate(-315.065 -233.316)" fill="#f19920"/>
  <path id="Path_16" data-name="Path 16" d="M437.456,312.447a.417.417,0,0,1-.34-.114.548.548,0,0,1,0-.794,3.785,3.785,0,0,0,1.021-2.609.567.567,0,1,1,1.134,0,5.237,5.237,0,0,1-1.248,3.4A1.233,1.233,0,0,1,437.456,312.447Z" transform="translate(-394.356 -280.576)" fill="#ffcb5b"/>
  <g id="Group_8" data-name="Group 8" transform="translate(31.871 22.684)">
    <path id="Path_17" data-name="Path 17" d="M396.771,286.079a1.072,1.072,0,0,1-1.134-1.134v-4.537a1.134,1.134,0,1,1,2.268,0v4.537A1.072,1.072,0,0,1,396.771,286.079Z" transform="translate(-388.945 -277.006)" fill="#f19920"/>
    <path id="Path_18" data-name="Path 18" d="M339,268.363a9.216,9.216,0,0,0-5.444-6.125,9.482,9.482,0,0,0-4.31-6.238,8.2,8.2,0,0,0-2.268,5.558,7.891,7.891,0,0,0,7.939,7.939A6.578,6.578,0,0,0,339,268.363Z" transform="translate(-326.981 -256)" fill="#f19920"/>
  </g>
  <g id="Group_9" data-name="Group 9" transform="translate(34.026 24.159)">
    <path id="Path_19" data-name="Path 19" d="M351.132,279.634a5.966,5.966,0,0,1-1.361-3.629,5.491,5.491,0,0,1,1.815-4.083,4.931,4.931,0,0,0-.681-.794,5.557,5.557,0,0,0-1.815,4.2A5.438,5.438,0,0,0,351.132,279.634Z" transform="translate(-349.09 -271.128)" fill="#e78825"/>
    <path id="Path_20" data-name="Path 20" d="M395.636,321.164v1.588a1.134,1.134,0,0,0,2.268,0v-.227A9.271,9.271,0,0,0,395.636,321.164Z" transform="translate(-391.099 -316.287)" fill="#e78825"/>
  </g>
  <path id="Path_21" data-name="Path 21" d="M337.954,269.411a7.25,7.25,0,0,0-.907-2.155,5.489,5.489,0,0,1-3.289,1.134,5.616,5.616,0,0,1-5.671-5.671,5.557,5.557,0,0,1,1.815-4.2,6.92,6.92,0,0,0-1.815-1.361,8.2,8.2,0,0,0-2.268,5.558,7.891,7.891,0,0,0,7.94,7.939A7.6,7.6,0,0,0,337.954,269.411Z" transform="translate(-294.06 -234.365)" fill="#f6b545"/>
  <path id="Path_22" data-name="Path 22" d="M411.128,372.364a7.837,7.837,0,0,1-2.835,1.134,1.206,1.206,0,0,0-1.021,1.134h0a7.607,7.607,0,0,0,4.2-1.247Z" transform="translate(-367.575 -338.338)" fill="#f19920"/>
  <path id="Path_23" data-name="Path 23" d="M328.086,257.164a8.2,8.2,0,0,0-2.268,5.558h.114a1.206,1.206,0,0,0,1.134-1.021,7.058,7.058,0,0,1,2.042-3.97A4.6,4.6,0,0,1,328.086,257.164Z" transform="translate(-294.06 -234.366)" fill="#ffcb5b"/>
  <circle id="Ellipse_8" data-name="Ellipse 8" cx="7.939" cy="7.939" r="7.939" transform="translate(21.55 22.684)" fill="#f6b545"/>
  <path id="Path_24" data-name="Path 24" d="M290.909,322.12a7.862,7.862,0,0,0,.34,2.268h.794a7.913,7.913,0,0,0,7.6-10.208h-.794A7.891,7.891,0,0,0,290.909,322.12Z" transform="translate(-262.554 -285.826)" fill="#f19920"/>
  <path id="Path_25" data-name="Path 25" d="M229.029,256a7.939,7.939,0,1,0,7.94,7.939A7.891,7.891,0,0,0,229.029,256Zm0,13.61a5.671,5.671,0,1,1,5.671-5.671A5.616,5.616,0,0,1,229.029,269.61Z" transform="translate(-199.54 -233.316)" fill="#ffcb5b"/>
  <path id="Path_26" data-name="Path 26" d="M302.545,345.281h0a7.8,7.8,0,0,0,7.94-7.826h-.114a1.206,1.206,0,0,0-1.134,1.021,6.857,6.857,0,0,1-2.155,4.083,6.426,6.426,0,0,1-3.516,1.7A1.016,1.016,0,0,0,302.545,345.281Z" transform="translate(-273.056 -306.831)" fill="#f6b545"/>
  <path id="Path_27" data-name="Path 27" d="M229.029,257.14h0a7.8,7.8,0,0,0-7.939,7.826h.113a1.206,1.206,0,0,0,1.134-1.021,6.858,6.858,0,0,1,2.155-4.083,6.427,6.427,0,0,1,3.516-1.7A1.016,1.016,0,0,0,229.029,257.14Z" transform="translate(-199.54 -234.342)" fill="#ffe27a"/>
  <path id="Path_28" data-name="Path 28" d="M245.157,285.738a5.616,5.616,0,0,1,5.671-5.671,5.349,5.349,0,0,1,3.629,1.361,5.653,5.653,0,0,0-10.094,3.516,5.437,5.437,0,0,0,2.042,4.31A5.319,5.319,0,0,1,245.157,285.738Z" transform="translate(-220.545 -254.32)" fill="#f19920"/>
  <path id="Path_29" data-name="Path 29" d="M332.729,335.719a.417.417,0,0,1-.34-.113.548.548,0,0,1,0-.794,3.785,3.785,0,0,0,1.021-2.609.567.567,0,1,1,1.134,0,5.237,5.237,0,0,1-1.248,3.4A1.234,1.234,0,0,1,332.729,335.719Z" transform="translate(-299.837 -301.58)" fill="#ffcb5b"/>
  <path id="Path_30" data-name="Path 30" d="M292.043,309.352a1.072,1.072,0,0,1-1.134-1.134v-4.537a1.134,1.134,0,0,1,2.268,0v4.537A1.072,1.072,0,0,1,292.043,309.352Z" transform="translate(-262.554 -275.326)" fill="#f19920"/>
  <g id="Group_10" data-name="Group 10" transform="translate(27.221 28.355)">
    <path id="Path_31" data-name="Path 31" d="M297.261,314.294a6.633,6.633,0,0,1,.454,2.155,5.616,5.616,0,0,1-5.671,5.671,3.855,3.855,0,0,1-1.134-.114v.114a7.86,7.86,0,0,0,.34,2.268h.794a7.912,7.912,0,0,0,7.6-10.208h-.794A7.489,7.489,0,0,0,297.261,314.294Z" transform="translate(-289.776 -314.181)" fill="#f6b545"/>
    <circle id="Ellipse_9" data-name="Ellipse 9" cx="7.939" cy="7.939" r="7.939" transform="translate(0 1.134)" fill="#f6b545"/>
  </g>
  <path id="Path_32" data-name="Path 32" d="M287.211,325.818a7.939,7.939,0,1,0,7.939,7.94A7.891,7.891,0,0,0,287.211,325.818Zm0,13.611a5.671,5.671,0,1,1,5.671-5.671A5.616,5.616,0,0,1,287.211,339.429Z" transform="translate(-252.051 -296.329)" fill="#ffcb5b"/>
  <path id="Path_33" data-name="Path 33" d="M360.727,415.1h0a7.8,7.8,0,0,0,7.94-7.826h-.114a1.206,1.206,0,0,0-1.134,1.021,6.857,6.857,0,0,1-2.155,4.083,6.426,6.426,0,0,1-3.516,1.7A1.017,1.017,0,0,0,360.727,415.1Z" transform="translate(-325.567 -369.844)" fill="#f6b545"/>
  <path id="Path_34" data-name="Path 34" d="M287.211,326.958h0a7.8,7.8,0,0,0-7.94,7.826h.113a1.206,1.206,0,0,0,1.134-1.021,6.857,6.857,0,0,1,2.155-4.083,6.427,6.427,0,0,1,3.516-1.7A1.016,1.016,0,0,0,287.211,326.958Z" transform="translate(-252.051 -297.355)" fill="#ffe27a"/>
  <path id="Path_35" data-name="Path 35" d="M303.339,355.556a5.616,5.616,0,0,1,5.671-5.671,5.35,5.35,0,0,1,3.63,1.361,5.654,5.654,0,0,0-10.095,3.516,5.438,5.438,0,0,0,2.042,4.31A5.319,5.319,0,0,1,303.339,355.556Z" transform="translate(-273.056 -317.333)" fill="#f19920"/>
  <path id="Path_36" data-name="Path 36" d="M390.91,405.537a.417.417,0,0,1-.34-.113.548.548,0,0,1,0-.794,3.786,3.786,0,0,0,1.021-2.609.567.567,0,0,1,1.134,0,5.237,5.237,0,0,1-1.248,3.4A1.233,1.233,0,0,1,390.91,405.537Z" transform="translate(-352.347 -364.592)" fill="#ffcb5b"/>
  <path id="Path_37" data-name="Path 37" d="M350.225,379.169a1.071,1.071,0,0,1-1.134-1.134V373.5a1.134,1.134,0,0,1,2.268,0v4.537A1.071,1.071,0,0,1,350.225,379.169Z" transform="translate(-315.065 -338.338)" fill="#f19920"/>
</svg>
