<?xml version="1.0" encoding="UTF-8"?>
<!DOCTYPE svg PUBLIC "-//W3C//DTD SVG 1.1//EN" "http://www.w3.org/Graphics/SVG/1.1/DTD/svg11.dtd">
<!-- Creator: CorelDRAW 2019 (64-Bit) -->
<svg xmlns="http://www.w3.org/2000/svg" xml:space="preserve" width="297mm" height="420mm" version="1.1" style="shape-rendering:geometricPrecision; text-rendering:geometricPrecision; image-rendering:optimizeQuality; fill-rule:evenodd; clip-rule:evenodd"
viewBox="0 0 29700 42000"
 xmlns:xlink="http://www.w3.org/1999/xlink"
 xmlns:xodm="http://www.corel.com/coreldraw/odm/2003">
 <defs>
  <style type="text/css">
   <![CDATA[
    .fil1 {fill:#FEFEFE}
    .fil0 {fill:white}
   ]]>
  </style>
 </defs>
 <g id="Layer_x0020_1">
  <metadata id="CorelCorpID_0Corel-Layer"/>
  <g id="_1446596437392">
   <path class="fil0" d="M22318.4 13519.56c302.23,91.69 599.87,199.57 891.47,323.34 0.05,316.78 -16.88,632.91 -50.5,946.95 -142.35,1329.37 -584.07,2621.27 -1302.92,3767.84 -277.98,-116.25 -562.8,-219.37 -853.77,-308.48 755.97,-1142.98 1198.65,-2457.4 1299.92,-3805.68 -2251.11,-761.68 -4817.85,-511.82 -6952.84,901.6 -1823.84,1207.44 -2988.89,3036.56 -3400.74,5021.42 -276.48,261 -536.94,538.82 -779.56,831.93 -89.16,107.72 -175.94,217.52 -260.23,329.25 8.42,-160.54 21.21,-320.74 38.31,-480.4 270.97,-2530.41 1626.07,-4925.35 3913.84,-6439.91 2287.77,-1514.55 5021.73,-1826.67 7457.02,-1087.86zm-9643.6 8114.64c2024.97,438.84 4218.2,91.96 6082.35,-1142.13 509.28,-337.17 967.12,-722.87 1371.58,-1146.86 315.33,81.43 622.52,183.05 920.21,303.32 -514.43,592.93 -483.91,707.68 -1803.41,1581.23 -1319.5,873.55 -4229.93,1709.1 -6369.37,1344.2 -557.12,-159.88 -607.46,-360.82 -499.38,-579.68l0 -0.02c95.56,-123.2 195.06,-243.21 298.02,-360.06z"/>
   <path class="fil0" d="M22318.34 30469.09c-2435.3,738.81 -5169.28,426.67 -7457.02,-1087.91 -2287.76,-1514.58 -3642.83,-3909.53 -3913.8,-6439.95 -33.62,-314.04 -50.55,-630.17 -50.48,-946.97 291.62,-123.77 589.24,-231.63 891.47,-323.33 2435.29,-738.79 5169.25,-426.64 7457.02,1087.92 2287.73,1514.6 3642.82,3909.54 3913.77,6439.95 33.64,314.06 50.55,630.18 50.5,946.97 -291.6,123.77 -589.24,231.63 -891.46,323.32zm-15.8 -923.97c-177.97,-2369.8 -1410.41,-4635.12 -3545.41,-6048.56 -2134.97,-1413.44 -4701.69,-1663.32 -6952.82,-901.66l-0.01 0c177.95,2369.81 1410.43,4635.13 3545.39,6048.57 2134.99,1413.44 4701.75,1663.33 6952.85,901.65z"/>
   <path class="fil0" d="M24998.75 22874.66c-836.48,975.35 -1881.7,1766.34 -3066.37,2303.92 -167.6,-250.39 -348.17,-493.6 -541.61,-728.52 1209.89,-513.9 2266.41,-1318.51 3082,-2326.17 183.5,241.9 362.54,493.73 525.98,750.77zm-526.04 -1009.71c-1459.72,-1803.63 -3691.29,-2956.93 -6192.4,-2956.93 -2187.3,0 -4168.46,882.03 -5607.56,2309.71 -374.62,65.03 -745.16,152.9 -1109.27,263.36 -133.81,40.61 -266.78,84.26 -398.75,130.91 95.64,-129.23 194.75,-255.74 297.15,-379.44 1622.78,-1960.35 4074.77,-3209.27 6818.44,-3209.27 2687.79,0.02 5095.54,1198.72 6718.11,3090.56 -163.37,257.11 -342.24,509.19 -525.72,751.1zm-11894.55 810.46c1446.22,1483.73 3466.49,2405.2 5702.11,2405.24 610.77,-0.02 1205.46,-68.89 1776.76,-199.15 217.97,241.97 418.03,496.27 599.85,760.89 -756.25,210.42 -1553.26,322.95 -2376.59,322.95 -2341.59,0 -4470.5,-909.91 -6053.01,-2395.19 -44.96,-251.01 -77.27,-504.37 -96.4,-759.03l0.02 -0.02c147.69,-49.97 296.89,-95.1 447.26,-135.69z"/>
   <path class="fil1" d="M25103.72 22710.12c-149.43,-247.09 -322.47,-488.57 -498.72,-715.77 176.25,-227.21 349.08,-468.97 498.5,-716.04 188.23,227.41 367.17,469.12 530.57,716.04 -163.4,246.92 -342.11,488.35 -530.35,715.77z"/>
  </g>
 </g>
</svg>
